<svg width="37" height="40" viewBox="0 0 37 40" fill="none" xmlns="http://www.w3.org/2000/svg">
<path opacity="0.2" d="M36.4323 39.378C36.4323 39.0368 28.7827 38.7559 19.3579 38.7559C9.93296 38.7559 2.28345 39.0368 2.28345 39.378C2.28345 39.7191 9.93296 40 19.3579 40C28.8047 40 36.4323 39.7191 36.4323 39.378Z" fill="#5D5D5D"/>
<path d="M19.599 7.87321C27.0293 7.87321 33.0569 13.3916 33.0569 20.1942V32.5152H19.599C12.1687 32.5152 6.14111 26.9968 6.14111 20.1942V7.87321H19.599Z" fill="white"/>
<path opacity="0.3" d="M31.1281 13.8531C30.0103 15.0371 29.3308 16.5822 29.3308 18.2678C29.3308 20.7762 30.8213 22.9634 33.035 24.1474V20.1942C33.035 17.8865 32.3555 15.7193 31.1281 13.8531Z" fill="white"/>
<path d="M25.8456 9.29796C23.7414 10.4016 22.3386 12.4685 22.3386 14.8564C22.3386 18.3882 25.473 21.2577 29.3306 21.2577C30.6895 21.2577 31.9608 20.8965 33.0348 20.2745V20.1942C33.0348 15.4584 30.1196 11.3448 25.8456 9.29796Z" fill="white"/>
<path opacity="0.5" d="M15.2811 10.2606C11.818 10.2606 8.63981 11.3643 6.14111 13.2305V20.2137C6.14111 27.0163 12.1687 32.5347 19.599 32.5347H26.043C28.3883 30.1668 29.8129 27.0364 29.8129 23.5849C29.8129 16.2204 23.3032 10.2606 15.2811 10.2606Z" fill="#F8F6EC"/>
<path d="M33.0349 32.4951L19.599 32.5152C12.1687 32.5152 6.14111 26.9968 6.14111 20.1942V7.89328L33.0349 32.4951Z" fill="white"/>
<path opacity="0.3" d="M8.22339 12.288C8.22339 21.6391 16.5085 29.2042 26.7006 29.2042C27.5773 29.2042 28.4321 29.144 29.265 29.0437L8.39874 9.96022C8.28914 10.7228 8.22339 11.5054 8.22339 12.288Z" fill="white"/>
<path opacity="0.3" d="M33.035 32.5152L6.25073 7.99367C9.40698 12.308 13.0454 16.6826 16.7496 20.2946C19.6429 23.1039 27.9938 29.3848 33.035 32.5152Z" fill="white"/>
<path opacity="0.3" d="M14.9304 15.92L6.14111 7.89328V20.2143C6.14111 25.6523 9.99875 30.2677 15.3249 31.8931C13.0454 29.7861 11.6426 26.8965 11.6426 23.7259C11.6426 20.7159 12.892 17.9869 14.9304 15.92Z" fill="white"/>
<path opacity="0.3" d="M26.8978 26.8966C24.6183 29.4451 21.1552 31.0905 17.2757 31.0905C14.6893 31.0905 12.2783 30.3681 10.2837 29.124C12.6947 31.231 15.9606 32.5353 19.5771 32.5353H33.035V32.5153L26.8978 26.8966Z" fill="white"/>
<path opacity="0.3" d="M6.93017 15.2578C6.93017 13.2712 7.30279 11.3448 8.00417 9.57889L6.14111 7.89328V20.2143C6.14111 27.0169 12.1687 32.5352 19.599 32.5352H33.0569V32.5152L31.7198 31.2911C29.7691 31.9332 27.6869 32.2744 25.495 32.2744C15.2372 32.2543 6.93017 24.649 6.93017 15.2578Z" fill="#F8F6EC"/>
<path d="M32.8157 34.9031C33.7582 34.6623 34.7446 35.184 34.9857 36.0469C35.2487 36.9098 34.6788 37.8128 33.7144 38.0335C32.7719 38.2743 31.7856 37.7526 31.5445 36.8897C31.3034 36.0268 31.8732 35.1439 32.8157 34.9031ZM32.465 33.679C30.7773 34.1004 29.7691 35.6656 30.2294 37.2108C30.6677 38.7559 32.3993 39.679 34.087 39.2576C35.7747 38.8362 36.783 37.2509 36.3227 35.7258C35.8843 34.1807 34.1528 33.2777 32.465 33.679Z" fill="white"/>
<path opacity="0.5" d="M34.7004 37.4512C34.4593 37.7322 34.1305 37.9529 33.736 38.0532C32.7935 38.294 31.8072 37.7723 31.5661 36.9094C31.3907 36.2673 31.6318 35.6252 32.1579 35.2439C31.8948 34.9028 31.6757 34.5215 31.4565 34.1402C30.4044 34.8225 29.8784 36.0466 30.229 37.2506C30.6674 38.7957 32.399 39.7188 34.0867 39.2974C34.8757 39.0967 35.5114 38.6552 35.9278 38.0733C35.5114 37.8726 35.0949 37.672 34.7004 37.4512Z" fill="white"/>
<path d="M6.77667 34.9031C7.71916 34.6823 8.70549 35.2041 8.94659 36.0669C9.18769 36.9298 8.61782 37.8328 7.67533 38.0535C6.73284 38.2743 5.74651 37.7525 5.50541 36.8897C5.26431 36.0268 5.83419 35.1238 6.77667 34.9031ZM6.42598 33.679C4.73827 34.0803 3.73002 35.6656 4.16839 37.2107C4.60676 38.7559 6.33831 39.6789 8.02602 39.2776C9.71373 38.8763 10.722 37.291 10.3055 35.7459C9.84524 34.2007 8.11369 33.2776 6.42598 33.679Z" fill="white"/>
<path opacity="0.5" d="M8.63987 37.4713C8.39877 37.7522 8.06999 37.973 7.67546 38.0532C6.73297 38.274 5.74665 37.7522 5.50554 36.8894C5.3302 36.2472 5.59322 35.6051 6.09734 35.2238C5.83432 34.8827 5.61513 34.5014 5.41787 34.1202C4.36579 34.7824 3.81783 36.0064 4.16852 37.2104C4.60689 38.7556 6.33844 39.6786 8.02615 39.2773C8.81521 39.0967 9.47277 38.6352 9.8673 38.0532C9.42893 37.8927 9.0344 37.692 8.63987 37.4713Z" fill="white"/>
<path d="M6.99588 7.03037C6.57944 7.03037 6.22874 6.7093 6.22874 6.32803C6.22874 4.68256 5.72462 3.43842 4.76021 2.61569C3.20401 1.27122 0.858744 1.41168 0.836826 1.41168C0.420377 1.45182 0.0477647 1.15082 0.00392799 0.769547C-0.0399087 0.388279 0.288867 0.0471443 0.705316 0.00701083C0.836826 0.00701083 3.73005 -0.193657 5.79038 1.55215C7.10548 2.65582 7.76303 4.26116 7.76303 6.30797C7.76303 6.7093 7.43425 7.03037 6.99588 7.03037Z" fill="white"/>
</svg>
